<svg xmlns="http://www.w3.org/2000/svg" viewBox="0 0 1000 1000"><style>.st0{fill:#212121}</style><path class="st0" d="M498.6 870.4c-117.7 0-188.5-28.5-220.2-45.5-10.8-5.8-18.9-15.3-22.9-26.7-7.5-21.5-18.7-64.8-29.5-149.5-7.6-59.5-9.3-101.8-9.3-126.9 0-17.6-10.5-33.3-26.7-40.1l-20.4-8.6c-21.8-9.2-33.8-32.6-28.5-55.7l31.3-136.1c3.4-14.8 13.7-27.4 27.6-33.5 28.3-12.5 76.4-29.9 144.4-41.3l6-1-3.6 4.9c-4.8 6.6-7.2 13.4-7.2 20.3 0 17.3 15 33.8 42.1 46.3 28 12.9 65 20 104.3 20 39.4 0 76.4-7.1 104.1-19.9 27.2-12.5 42.1-29 42.1-46.3 0-7-2.4-13.8-7.2-20.4l-3.6-4.9 6 1c68.4 11.4 116.3 28.8 144.4 41.3 13.8 6.2 24 18.7 27.4 33.4l31.6 137.4c5.1 22.4-6.3 45.5-27.1 55.1l-16.2 7.4c-15.4 7.1-25.4 22.6-25.4 39.5 0 22.5-1.7 62-9.1 122.2-10.2 82.3-24.2 133.4-31.6 156.4-3.7 11.4-11.4 21.1-21.8 27.2-28.1 16.4-91.5 44-201 44zm-158.8-658c-64.6 11.3-110.4 27.9-137.7 40-12.5 5.5-21.7 16.7-24.8 30.1l-31.3 136c-4.8 20.7 6 41.7 25.5 49.9L192 477c18 7.6 29.7 25.2 29.7 44.7 0 24.9 1.7 67 9.2 126.3 10.8 84.3 21.9 127.3 29.3 148.5 3.6 10.3 10.9 18.8 20.5 24 31.3 16.8 101.2 44.9 217.8 44.9 108.3 0 170.9-27.1 198.5-43.3 9.3-5.5 16.3-14.1 19.6-24.4 7.4-22.9 21.2-73.6 31.4-155.5 7.5-60 9.1-99.3 9.1-121.6 0-18.9 11.2-36.1 28.3-44l16.2-7.4c18.7-8.6 28.9-29.3 24.3-49.4l-31.6-137.4c-3-13.2-12.2-24.5-24.6-30-27.1-12.1-72.7-28.7-137.6-40 3.4 6 5.1 12.2 5.1 18.5 0 19.4-16 37.5-45 50.9C563.8 294.7 526.1 302 486 302s-77.8-7.2-106.2-20.4c-29-13.4-45-31.5-45-50.9 0-6.2 1.7-12.4 5-18.3z" id="Layer_3"/><g id="Layer_2"><path class="st0" d="M486 302c-40.1 0-77.8-7.2-106.2-20.4-29-13.4-45-31.5-45-50.9s16-37.5 45-50.9c28.4-13.1 66.1-20.4 106.2-20.4 40.1 0 77.8 7.2 106.2 20.4 29 13.4 45 31.5 45 50.9s-16 37.5-45 50.9C563.8 294.7 526.1 302 486 302zm0-137.5c-39.4 0-76.4 7.1-104.1 19.9-27.2 12.5-42.1 29-42.1 46.3s15 33.8 42.1 46.3c27.8 12.9 64.8 20 104.1 20 39.4 0 76.4-7.1 104.1-19.9 27.2-12.5 42.1-29 42.1-46.3s-15-33.8-42.1-46.3c-27.7-12.9-64.7-20-104.1-20zm75.3 479.2H423.4l-.6-.4c-39.7-24.4-63.4-66.8-63.4-113.4 0-73.3 59.7-133 133-133s133 59.7 133 133c0 46.6-23.7 88.9-63.4 113.4l-.7.4zm-136.5-5h135.1c37.9-23.6 60.5-64.2 60.5-108.7 0-70.6-57.4-128-128-128s-128 57.4-128 128c0 44.6 22.6 85.1 60.4 108.7z"/><path class="st0" d="M536.8 756.5h-88.6c-13.9 0-25.2-11.3-25.2-25.2v-92.6h139v92.6c0 13.9-11.3 25.2-25.2 25.2zM427.9 643.7v87.6c0 11.2 9.1 20.2 20.2 20.2h88.6c11.2 0 20.2-9.1 20.2-20.2v-87.6h-129z"/><path class="st0" d="M514.7 771.2h-44.5c-5.1 0-9.2-4.1-9.2-9.2v-10.4h63V762c0 5-4.2 9.2-9.3 9.2zM466 756.5v5.4c0 2.3 1.9 4.2 4.2 4.2h44.5c2.3 0 4.2-1.9 4.2-4.2v-5.4H466z"/><path transform="rotate(-53.601 394.998 660.815)" class="st0" d="M385.7 658.3h18.7v5h-18.7z"/><path transform="rotate(-38.528 363.71 630.822)" class="st0" d="M354.3 628.3H373v5h-18.7z"/><path transform="rotate(-23.471 341.228 593.642)" class="st0" d="M331.9 591.2h18.7v5h-18.7z"/><path transform="rotate(-8.389 329.189 551.919)" class="st0" d="M319.9 549.5h18.7v5h-18.7z"/><path transform="rotate(-83.321 328.49 508.655)" class="st0" d="M326 499.3h5V518h-5z"/><path transform="rotate(-68.247 339.06 466.589)" class="st0" d="M336.5 457.3h5V476h-5z"/><path transform="rotate(-53.18 360.139 428.715)" class="st0" d="M357.7 419.4h5v18.7h-5z"/><path transform="rotate(-38.103 390.447 397.641)" class="st0" d="M387.9 388.3h5V407h-5z"/><path transform="rotate(-23.035 427.678 375.474)" class="st0" d="M425.2 366.1h5v18.7h-5z"/><path transform="rotate(-7.966 469.297 363.69)" class="st0" d="M466.9 354.5h5v18.7h-5z"/><path transform="rotate(-82.894 512.826 363.362)" class="st0" d="M503.5 360.9h18.7v5h-18.7z"/><path transform="rotate(-67.821 554.801 374.22)" class="st0" d="M545.5 371.7h18.7v5h-18.7z"/><path transform="rotate(-52.754 592.534 395.64)" class="st0" d="M583.2 393.1h18.7v5h-18.7z"/><path transform="rotate(-37.683 623.375 426.094)" class="st0" d="M614 423.6h18.7v5H614z"/><path transform="rotate(-22.606 645.13 463.49)" class="st0" d="M635.9 461h18.7v5h-18.7z"/><path transform="rotate(-7.539 656.828 505.532)" class="st0" d="M647.3 502.9H666v5h-18.7z"/><path transform="rotate(-82.461 656.703 548.724)" class="st0" d="M654.2 539.4h5v18.7h-5z"/><path transform="rotate(-67.394 645.493 590.628)" class="st0" d="M643 581.3h5V600h-5z"/><path transform="rotate(-52.316 623.903 628.22)" class="st0" d="M621.4 618.9h5v18.7h-5z"/><path transform="rotate(-37.25 593.116 658.808)" class="st0" d="M590.6 649.5h5v18.7h-5z"/><path class="st0" d="M561.2 507.8c-5.3-2.8-12.8-7.5-18.1-13.9-2.8-3.4-7-5.4-11.3-5.4h-73.9c-4.4 0-8.5 2-11.3 5.4-5.3 6.4-12.7 11.1-18.1 13.9-6.4 3.4-9.1 11.2-6.1 17.9l37.9 83.1c.5 1.1 1.8 1.5 2.8 1.1l.7-.3c1.1-.5 1.5-1.8 1.1-2.8L427 523.6c-1.9-4.2-.2-9.2 3.9-11.4 5.7-3 13.8-8.1 19.6-15.1 1.9-2.3 4.6-3.6 7.5-3.6h73.9c2.9 0 5.6 1.3 7.5 3.6 5.8 7 13.9 12.1 19.6 15.1 4.1 2.2 5.8 7.2 3.9 11.4L525 606.7c-.5 1.1 0 2.3 1.1 2.8l.7.3c1.1.5 2.3 0 2.8-1.1l37.9-83.1c2.8-6.6.1-14.4-6.3-17.8z"/></g></svg>