<svg id="Layer_5" xmlns="http://www.w3.org/2000/svg" viewBox="0 0 1000 1000"><style>.st0{fill:#212121}</style><path class="st0" d="M918.3 395.6l-22.7-98.9c-2.4-10.6-9.8-19.6-19.7-24-20.1-9-54.3-21.4-103.1-29.6-5.4-7.2-14.2-13.7-26.1-19.2-20.4-9.4-47.6-14.6-76.4-14.6-28.8 0-56 5.2-76.4 14.6-11.9 5.5-20.7 12.1-26.1 19.3-30.3 5.1-55.1 11.9-74.4 18.4-19.3-6.6-44.1-13.4-74.8-18.5-5.4-7.2-14.2-13.7-26.1-19.2-20.4-9.4-47.6-14.6-76.4-14.6-28.8 0-56 5.2-76.4 14.6-11.9 5.5-20.7 12.1-26.1 19.3-48.5 8.2-82.9 20.6-103.1 29.6-10 4.4-17.4 13.4-19.9 24.1l-22.5 97.9c-3.8 16.6 4.8 33.4 20.5 40l14.7 6.2c11.6 4.9 19.2 16.2 19.2 28.9 0 18 1.2 48.5 6.7 91.3 7.8 60.9 15.9 92.1 21.2 107.6 2.9 8.3 8.7 15.1 16.5 19.2 18.6 9.9 55.8 25.4 114.6 30.8.1.9.2 1.8.4 2.8 8.9 69.3 18 104.8 24.2 122.4 3.3 9.4 9.9 17.2 18.7 21.9 26 13.9 83.9 37.2 180.3 37.2 89.7 0 141.6-22.6 164.6-36 8.5-5 14.8-12.9 17.8-22.2 6-18.6 17.2-59.6 25.5-125.4 58.5-4.6 94-20.4 111.1-30.4 7.5-4.4 13-11.3 15.7-19.5 5.3-16.6 15.4-53.3 22.7-112.5 5.4-43.4 6.6-71.8 6.6-87.9 0-12.2 7.2-23.3 18.3-28.4l11.7-5.4c14.7-7.1 22.9-23.7 19.2-39.8zm-323-168.4c20-9.2 46.6-14.3 74.9-14.3 28.3 0 54.9 5.1 74.9 14.3 10.9 5.1 19.1 11 24.2 17.4l.9 1.2c1.6 2.2 2.8 4.4 3.7 6.7 0 .1 0 .1.1.2.1.4.3.8.4 1.2 0 .1.1.3.1.4.1.3.2.7.3 1 .1.5.2 1 .3 1.4v.1c.1.6.2 1.1.2 1.7v.3c0 .6.1 1.1.1 1.7 0 12.5-10.8 24.3-30.3 33.3-20 9.2-46.6 14.3-74.9 14.3-28.3 0-54.9-5.1-74.9-14.3-19.5-9-30.3-20.9-30.3-33.3 0-.6 0-1.1.1-1.7v-.3c.1-.6.1-1.1.2-1.7v-.1c.1-.5.2-.9.3-1.4.1-.3.2-.7.3-1 0-.1.1-.2.1-.4.1-.4.3-.8.4-1.3v-.1c.9-2.3 2.1-4.5 3.7-6.7l.9-1.2c5.2-6.4 13.4-12.4 24.3-17.4zm-354.2 0c20-9.2 46.6-14.3 74.9-14.3 28.3 0 54.9 5.1 74.9 14.3 10.9 5.1 19.1 11 24.2 17.4l.9 1.2c1.6 2.2 2.8 4.4 3.7 6.7 0 .1 0 .1.1.2.1.4.3.8.4 1.2 0 .1.1.3.1.4.1.3.2.7.3 1 .1.5.2 1 .3 1.4v.1c.1.6.2 1.1.2 1.7v.3c0 .6.1 1.1.1 1.7 0 12.5-10.8 24.3-30.3 33.3-20 9.2-46.6 14.3-74.9 14.3-28.3 0-54.9-5.1-74.9-14.3-19.5-9-30.3-20.9-30.3-33.3 0-.6 0-1.1.1-1.7v-.3c.1-.6.1-1.1.2-1.7v-.1c.1-.5.2-.9.3-1.4.1-.3.2-.7.3-1 0-.1.1-.2.1-.4.1-.4.3-.8.4-1.3v-.1c.9-2.3 2.1-4.5 3.7-6.7l.9-1.2c5.2-6.4 13.4-12.4 24.3-17.4zm-72.7 457.6c-6.9-3.7-12.2-9.8-14.8-17.2-5.3-15.3-13.3-46.2-21.1-106.8-5.5-42.6-6.6-72.9-6.6-90.8 0-14.1-8.4-26.7-21.4-32.2l-14.7-6.2c-14.1-5.9-21.8-21-18.4-35.9l22.6-98c2.2-9.6 8.9-17.7 17.8-21.6 19.6-8.7 52.6-20.6 99-28.7-.9 1.6-1.6 3.2-2.2 4.9-.4 1.1-.7 2.2-.9 3.3-.1.5-.2 1-.2 1.5 0 .1 0 .3-.1.4 0 .4-.1.8-.1 1.2v.4c0 .5-.1 1-.1 1.5 0 13.9 11.5 26.9 32.4 36.6 20.4 9.4 47.6 14.6 76.4 14.6 28.8 0 56-5.2 76.4-14.6 20.9-9.6 32.4-22.6 32.4-36.6 0-.5 0-1-.1-1.5v-.4c0-.4-.1-.8-.1-1.2 0-.1 0-.3-.1-.4l-.3-1.5c-.1-.6-.2-1.1-.4-1.6v-.1c-.1-.5-.3-1.1-.5-1.6v-.1c-.6-1.6-1.3-3.3-2.2-4.9 26.7 4.6 48.8 10.5 66.5 16.4-9.1 3.2-16.8 6.4-23.2 9.2-10 4.4-17.4 13.4-19.9 24.1l-7 30.6c-10.9 2.6-21.1 6.1-30 10.2-13.5 6.2-23.6 13.7-29.7 21.9-55.3 9.4-94.3 23.4-117.4 33.6-11.4 5-19.8 15.3-22.6 27.4l-25.6 111.4c-4.3 18.9 5.5 38 23.3 45.6l16.7 7c13.2 5.6 21.8 18.5 21.8 32.9 0 19.6 1.2 52.1 6.8 97.4-57.7-5.3-94.2-20.5-112.4-30.2zm438.9-323.6l1 1.4c1.8 2.5 3.2 5.1 4.2 7.6 0 .1 0 .1.1.2.2.5.3.9.5 1.4 0 .2.1.3.1.5.1.4.2.7.3 1.1.1.5.3 1.1.3 1.6v.1c.1.6.2 1.3.3 1.9v.4c.1.6.1 1.3.1 1.9 0 14.2-12.2 27.7-34.5 37.9-22.7 10.5-53 16.3-85.2 16.3-20.9 0-40.9-2.4-58.6-7-2.3-.6-4.7-1.2-6.9-1.9-7-2.1-13.7-4.6-19.8-7.4-22.2-10.3-34.5-23.7-34.5-37.9 0-.6 0-1.3.1-1.9v-.4c.1-.6.1-1.3.3-1.9v-.1c.1-.5.2-1.1.3-1.6l.3-1.2c0-.1.1-.3.1-.4.1-.5.3-1 .5-1.4v-.1c1-2.6 2.4-5.1 4.2-7.6l1-1.4c5.8-7.3 15.1-14.1 27.6-19.9 8.2-3.8 17.4-7 27.3-9.5l3.9-.9c16.6-3.8 35-5.9 54-5.9 32.2 0 62.5 5.8 85.2 16.3 12.7 5.8 22 12.5 27.8 19.8zm76 482.3c-2.7 8.4-8.4 15.5-16 20-22.6 13.2-73.8 35.5-162.5 35.5-95.5 0-152.7-23-178.3-36.8-7.9-4.2-13.9-11.2-16.8-19.6-6.1-17.4-15.1-52.6-24-121.6-.1-.6-.2-1.3-.2-1.9-.2-1.2-.3-2.4-.5-3.6-5.6-45.6-6.8-78.2-6.9-97.8 0-16-9.6-30.4-24.3-36.6l-16.7-7c-16-6.8-24.8-23.9-20.9-40.9l25.6-111.4c2.5-10.9 10.1-20.1 20.3-24.6 22.3-9.9 59.8-23.4 112.7-32.7-1 1.8-1.8 3.7-2.5 5.5-.4 1.2-.8 2.5-1 3.7-.1.6-.2 1.1-.3 1.7 0 .2 0 .3-.1.5-.1.4-.1.9-.1 1.3v.5c0 .6-.1 1.2-.1 1.7 0 15.9 13.1 30.7 36.9 41.6 8.3 3.9 17.7 7.1 27.7 9.6 4.5 1.1 9.1 2.1 13.8 3 14.3 2.6 29.6 4 45.5 4 32.8 0 63.7-5.9 87-16.7 23.8-11 36.9-25.8 36.9-41.6 0-.6 0-1.2-.1-1.8v-.5c0-.4-.1-.9-.1-1.3 0-.2 0-.3-.1-.5-.1-.6-.2-1.1-.3-1.7-.1-.6-.3-1.3-.4-1.9v-.1l-.6-1.8v-.1c-.6-1.9-1.5-3.7-2.5-5.6 53.1 9.3 90.5 22.9 112.6 32.8 10.1 4.5 17.6 13.7 20.1 24.5L772.9 534c3.8 16.4-4.6 33.4-19.9 40.4l-13.3 6.1c-14.1 6.4-23.2 20.6-23.2 36 0 18.3-1.4 50.4-7.4 99.5v.1c-.1 1.2-.3 2.3-.4 3.5-8.4 65.1-19.5 105.5-25.4 123.9zm214-411.6l-11.7 5.4c-12.4 5.7-20.4 18.1-20.4 31.7 0 16.1-1.2 44.3-6.6 87.5-7.3 58.9-17.3 95.4-22.6 111.9-2.4 7.4-7.4 13.6-14.1 17.5-16.8 9.8-51.5 25.3-108.8 29.9 6-48.8 7.3-80.8 7.4-99.2 0-13.9 8.2-26.5 20.8-32.3l13.3-6.1c17.1-7.8 26.4-26.8 22.2-45.1L751 420.6c-2.8-12.1-11.2-22.3-22.5-27.4-22.9-10.2-61.8-24.4-117.4-33.7-6.2-8.2-16.2-15.6-29.7-21.8-23.3-10.7-54.1-16.7-87-16.7-18.6 0-36.7 1.9-53 5.5l6.7-28.9c2.2-9.6 8.9-17.7 17.8-21.6 7.3-3.2 16.4-6.9 27.3-10.6 1.8-.6 3.7-1.2 5.6-1.9 17.7-5.8 39.8-11.6 66.2-16.3-.9 1.6-1.6 3.2-2.2 4.9-.4 1.1-.7 2.2-.9 3.3-.1.5-.2 1-.2 1.5 0 .1 0 .3-.1.4 0 .4-.1.8-.1 1.2v.4c0 .5-.1 1-.1 1.5 0 13.9 11.5 26.9 32.4 36.6 20.4 9.4 47.6 14.6 76.4 14.6 28.8 0 56-5.2 76.4-14.6 20.9-9.6 32.4-22.6 32.4-36.6 0-.5 0-1-.1-1.5v-.4c0-.4-.1-.8-.1-1.2 0-.1 0-.3-.1-.4l-.3-1.5c-.1-.6-.2-1.1-.4-1.6v-.1c-.1-.5-.3-1.1-.5-1.6v-.1c-.6-1.6-1.3-3.3-2.2-4.9 46.7 8.1 79.5 20.1 99 28.8 8.9 4 15.5 12 17.7 21.6l22.7 98.9c3.4 14.4-3.9 29.4-17.4 35.5z"/><path class="st0" d="M572.3 705.7c-.4-1.3-2-1.8-3.1-1-33.5 26.6-65.1 25.2-86 19.2-18.1-5.2-31.4-14.7-36.4-18.6-1.1-.8-2.7-.4-3.1.9l-.1.4c-.3.8 0 1.7.6 2.2 3.9 3.2 17.9 14.1 38.4 20 7.4 2.1 16.2 3.7 25.9 3.7 18.6 0 40.6-5.8 63.4-24.3.6-.5.9-1.4.6-2.2l-.2-.3zm-14.1-90.3c3.5 0 6.3-2.8 6.3-6.3s-2.8-6.3-6.3-6.3-6.3 2.8-6.3 6.3 2.8 6.3 6.3 6.3zm0-7.6c.7 0 1.3.6 1.3 1.3 0 .7-.6 1.3-1.3 1.3s-1.3-.6-1.3-1.3c0-.7.6-1.3 1.3-1.3zm-104 7.6c3.5 0 6.3-2.8 6.3-6.3s-2.8-6.3-6.3-6.3-6.3 2.8-6.3 6.3 2.8 6.3 6.3 6.3zm0-7.6c.7 0 1.3.6 1.3 1.3 0 .7-.6 1.3-1.3 1.3s-1.3-.6-1.3-1.3c0-.7.6-1.3 1.3-1.3z"/></svg>