<svg xmlns="http://www.w3.org/2000/svg" viewBox="0 0 1000 1000"><style>.st0{fill:#3e3d3d}</style><g id="Layer_2"><path class="st0" d="M486 317.9c-37.1 0-72-6.7-98.3-18.8C360.8 286.7 346 270 346 252c0-17.9 14.8-34.7 41.7-47.1 26.3-12.1 61.2-18.8 98.3-18.8 37.1 0 72 6.7 98.3 18.8C611.2 217.3 626 234 626 252c0 17.9-14.8 34.7-41.7 47.1-26.3 12.1-61.2 18.8-98.3 18.8zm0-127.2c-36.4 0-70.7 6.5-96.3 18.4-25.1 11.6-39 26.8-39 42.9s13.8 31.3 39 42.9c25.7 11.9 59.9 18.4 96.3 18.4s70.7-6.5 96.3-18.4c25.1-11.6 39-26.8 39-42.9s-13.8-31.3-39-42.9c-25.6-11.9-59.8-18.4-96.3-18.4zM783.9 799H408.2V501.5h375.7V799zm-370.7-5h365.7V506.5H413.2V794zm-2.5 2.5l79.9-63"/><path transform="rotate(-38.275 450.68 765.023)" class="st0" d="M399.8 762.5h101.7v5H399.8z"/><path class="st0" d="M697.5 730.2l83.9 66.3"/><path transform="rotate(-51.72 739.446 763.367)" class="st0" d="M736.9 709.9h5v106.9h-5z"/><path class="st0" d="M492.1 735.4l-3.1-3.9 103-82.2-182.7-145.9 158.4-74.2c12.7-5.8 27.3-6.1 40.2-.7l175 74.8-182.9 146 99 79-3.1 3.9-99.9-79.7-103.9 82.9zm-73.4-230.9L596 646.1l177.2-141.4-167.3-71.5c-11.5-4.8-24.7-4.6-36.1.6l-151.1 70.7z"/><path class="st0" d="M685.3 796.5c-1.3 1-2.6 1.9-4 2.7-25.6 15-83.4 40.1-183.7 40.1-107.9 0-172.6-26-201.5-41.5-8.9-4.8-15.7-12.7-19-22.2-6.9-19.7-17.1-59.4-27.1-137.4-7-54.8-8.5-93.8-8.5-116.8 0-18.1-10.8-34.4-27.5-41.4l-18.9-8c-18.1-7.6-28-27.1-23.6-46.2l29-126c2.8-12.3 11.4-22.7 22.9-27.8 25.3-11.2 67.6-26.5 127.4-37-3.1 5.5-4.6 11.2-4.6 17 0 17.9 14.8 34.7 41.7 47.1 26.3 12.1 61.2 18.8 98.3 18.8s72-6.7 98.3-18.8c26.9-12.4 41.7-29.1 41.7-47.1 0-5.8-1.6-11.6-4.7-17.1 60.1 10.5 102.3 25.8 127.3 37 11.4 5.1 19.9 15.5 22.8 27.7l29.3 127.2c4.3 18.6-5.2 37.8-22.5 45.7l-15 6.9c-6.2 2.9-11.6 7.1-15.8 12.2l4.3 2c3.7-4.2 8.2-7.6 13.4-10l15-6.9c19.3-8.8 29.8-30.3 25.1-50.9l-29.3-127.2c-3.1-13.7-12.6-25.2-25.4-30.9-26-11.6-70.3-27.7-133.6-38.2l-5.6-.9 3.3 4.6c4.4 6.1 6.7 12.5 6.7 18.9 0 16-13.8 31.3-39 42.9-25.7 11.9-59.9 18.4-96.3 18.4s-70.7-6.5-96.3-18.4c-25.1-11.6-39-26.8-39-42.9 0-6.4 2.2-12.7 6.6-18.8l3.3-4.6-5.6.9c-63 10.6-107.4 26.6-133.6 38.2-12.8 5.7-22.4 17.3-25.6 31l-29 126c-4.9 21.3 6.2 43 26.4 51.5l18.9 8c15 6.3 24.6 20.9 24.7 37.1 0 23.2 1.5 62.3 8.6 117.4 10 78.4 20.4 118.5 27.3 138.4 3.7 10.6 11.2 19.4 21.2 24.7 29.3 15.7 94.8 42.1 203.7 42.1 101.3 0 160-25.5 186-40.7 3.2-1.9 6.1-4.1 8.7-6.7h-7.2z"/></g></svg>