<svg xmlns="http://www.w3.org/2000/svg" viewBox="0 0 1000 1000"><style>.st0,.st1{fill:#3e3d3d}</style><path class="st0" d="M498.6 870.4c-117.7 0-188.5-28.5-220.2-45.5-10.8-5.8-18.9-15.3-22.9-26.7-7.5-21.5-18.7-64.8-29.5-149.5-7.6-59.5-9.3-101.8-9.3-126.9 0-17.6-10.5-33.3-26.7-40.1l-20.4-8.6c-21.8-9.2-33.8-32.6-28.5-55.7l31.3-136.1c3.4-14.8 13.7-27.4 27.6-33.5 28.3-12.5 76.4-29.9 144.4-41.3l6-1-3.6 4.9c-4.8 6.6-7.2 13.4-7.2 20.3 0 17.3 15 33.8 42.1 46.3 28 12.9 65 20 104.3 20 39.4 0 76.4-7.1 104.1-19.9 27.2-12.5 42.1-29 42.1-46.3 0-7-2.4-13.8-7.2-20.4l-3.6-4.9 6 1c68.4 11.4 116.3 28.8 144.4 41.3 13.8 6.2 24 18.7 27.4 33.4l31.6 137.4c5.1 22.4-6.3 45.5-27.1 55.1l-16.2 7.4c-15.4 7.1-25.4 22.6-25.4 39.5 0 22.5-1.7 62-9.1 122.2-10.2 82.3-24.2 133.4-31.6 156.4-3.7 11.4-11.4 21.1-21.8 27.2-28.1 16.4-91.5 44-201 44zm-158.8-658c-64.6 11.3-110.4 27.9-137.7 40-12.5 5.5-21.7 16.7-24.8 30.1l-31.3 136c-4.8 20.7 6 41.7 25.5 49.9L192 477c18 7.6 29.7 25.2 29.7 44.7 0 24.9 1.7 67 9.2 126.3 10.8 84.3 21.9 127.3 29.3 148.5 3.6 10.3 10.9 18.8 20.5 24 31.3 16.8 101.2 44.9 217.8 44.9 108.3 0 170.9-27.1 198.5-43.3 9.3-5.5 16.3-14.1 19.6-24.4 7.4-22.9 21.2-73.6 31.4-155.5 7.5-60 9.1-99.3 9.1-121.6 0-18.9 11.2-36.1 28.3-44l16.2-7.4c18.7-8.6 28.9-29.3 24.3-49.4l-31.6-137.4c-3-13.2-12.2-24.5-24.6-30-27.1-12.1-72.7-28.7-137.6-40 3.4 6 5.1 12.2 5.1 18.5 0 19.4-16 37.5-45 50.9C563.8 294.7 526.1 302 486 302s-77.8-7.2-106.2-20.4c-29-13.4-45-31.5-45-50.9 0-6.2 1.7-12.4 5-18.3z" id="Layer_3"/><g id="Layer_2"><path class="st0" d="M486 302c-40.1 0-77.8-7.2-106.2-20.4-29-13.4-45-31.5-45-50.9s16-37.5 45-50.9c28.4-13.1 66.1-20.4 106.2-20.4 40.1 0 77.8 7.2 106.2 20.4 29 13.4 45 31.5 45 50.9s-16 37.5-45 50.9C563.8 294.7 526.1 302 486 302zm0-137.5c-39.4 0-76.4 7.1-104.1 19.9-27.2 12.5-42.1 29-42.1 46.3s15 33.8 42.1 46.3c27.8 12.9 64.8 20 104.1 20 39.4 0 76.4-7.1 104.1-19.9 27.2-12.5 42.1-29 42.1-46.3s-15-33.8-42.1-46.3c-27.7-12.9-64.7-20-104.1-20z"/><path class="st1" d="M690.7 346.8l-3.5-3.6-83.1 79.9c-30.1-30.7-71.9-49.7-118.1-49.7-91.2 0-165.5 74.2-165.5 165.5 0 43.8 17.1 83.7 45.1 113.4l-81.8 78.6 3.5 3.6 81.8-78.6c30 29.9 71.3 48.5 116.9 48.5 91.2 0 165.5-74.2 165.5-165.5 0-43.2-16.7-82.6-43.9-112.1l83.1-80zm-365.1 192c0-88.5 72-160.5 160.5-160.5 44.8 0 85.4 18.5 114.5 48.2L525 499.1l-7.8-7.8 8.8-9.3c.5-.6.5-1.5-.1-2l-1.6-1.5c-.6-.5-1.5-.5-2 .1l-8.7 9.2-8.5-8.5 9-9.6c.5-.6.5-1.5-.1-2l-1.6-1.5c-.6-.5-1.5-.5-2 .1l-8.9 9.5-8.7-8.7c-1.8-1.8-4.3-2.8-6.8-2.8s-5 1-6.8 2.8l-5.8 5.8-7.2-7.2c-.6-.5-1.4-.5-2 0l-1.5 1.6c-.5.6-.5 1.4 0 2l7.2 7.2-8.1 8.1-7.4-7.4c-.6-.5-1.4-.5-2 0l-1.5 1.6c-.5.6-.5 1.4 0 2l7.4 7.4-20.5 20.5-8.7-8.6c-.6-.5-1.4-.5-2 0l-1.5 1.6c-.5.6-.5 1.4 0 2l8.6 8.6-8.5 8.5-9.3-9.2c-.6-.5-1.4-.5-2 0l-1.5 1.6c-.5.6-.5 1.4 0 2l9.3 9.2-8 8c-1.8 1.8-2.8 4.3-2.8 6.8 0 2.6 1 5 2.8 6.8l5.6 5.6-6.9 7.3c-.5.6-.5 1.5.1 2l1.6 1.5c.6.5 1.5.5 2-.1l6.8-7.2 8.5 8.5-7.2 7.6c-.5.6-.5 1.5.1 2l1.6 1.5c.6.5 1.5.5 2-.1l7.1-7.5 9.4 9.4-75.5 72.6c-27.2-29.1-43.8-67.8-43.8-110.3zm201.2-13.4l1.6 1.5c.6.5 1.5.5 2-.1l7.4-7.9 8.1 8.1-7.4 7.9c-.5.6-.5 1.5.1 2l1.6 1.5c.6.5 1.5.5 2-.1l7.3-7.8 4.9 4.9c.9.9 1.4 2.1 1.4 3.3 0 1.2-.5 2.4-1.4 3.3l-8.8 8.8-6.8-6.7c-.6-.5-1.4-.5-2 0l-1.5 1.6c-.5.6-.5 1.4 0 2l6.8 6.7-8.1 8.1-7-6.9c-.6-.5-1.4-.5-2 0l-1.5 1.6c-.5.6-.5 1.4 0 2l7 6.9-20.5 20.5-8.2-8.1c-.6-.5-1.4-.5-2 0l-1.5 1.6c-.5.6-.5 1.4 0 2l8.2 8.1-8.5 8.5-8.8-8.8c-.6-.5-1.4-.5-2 0l-1.5 1.6c-.5.6-.5 1.4 0 2l8.8 8.7-5 5c-.9.9-2.1 1.4-3.3 1.4s-2.4-.5-3.3-1.4l-8.3-8.3 8.2-8.7c.5-.6.5-1.5-.1-2l-1.6-1.5c-.6-.5-1.5-.5-2 .1l-8.1 8.6-8.1-8.1 8.1-8.6c.5-.6.5-1.5-.1-2l-1.6-1.5c-.6-.5-1.5-.5-2 .1l-7.9 8.5-7.4-7.4 73-70.1 9.3 9.3-7.5 8c-.6.4-.6 1.3 0 1.8zm-78.4 47.3l-9.5-9.5 8.6-9.1c.5-.6.5-1.5-.1-2l-1.6-1.5c-.6-.5-1.5-.5-2 .1l-8.5 9-8.5-8.5 8.9-9.4c.5-.6.5-1.5-.1-2l-1.6-1.5c-.6-.5-1.5-.5-2 .1l-8.8 9.3-5.5-5.5c-.9-.9-1.4-2.1-1.4-3.3 0-1.2.5-2.4 1.4-3.3l8-8 6.9 6.9c.6.5 1.4.5 2 0l1.5-1.6c.5-.6.5-1.4 0-2l-6.9-6.9 8.5-8.5 7.6 7.5c.6.5 1.4.5 2 0l1.5-1.6c.5-.6.5-1.4 0-2l-7.5-7.5 20.5-20.5 8.8 8.7c.6.5 1.4.5 2 0l1.5-1.6c.5-.6.5-1.4 0-2l-8.8-8.7 8.1-8.1 9 8.9c.6.5 1.4.5 2 0l1.5-1.6c.5-.6.5-1.4 0-2l-9-8.9 5.7-5.7c.9-.9 2.1-1.4 3.3-1.4s2.4.5 3.3 1.4l8.9 8.9-6.7 7.1c-.5.6-.5 1.5.1 2l1.6 1.5c.6.5 1.5.5 2-.1l6.6-7 8.5 8.5-7 7.4c-.5.6-.5 1.5.1 2l1.6 1.5c.6.5 1.5.5 2-.1l6.9-7.3 7.6 7.6-73 70.3zm198.1-33.9c0 88.5-72 160.5-160.5 160.5-44.2 0-84.3-18-113.3-47l75.6-72.6 7.6 7.6-7.7 8.2c-.5.6-.5 1.5.1 2l1.6 1.5c.6.5 1.5.5 2-.1l7.6-8.1 8.1 8.1-7.6 8.1c-.5.6-.5 1.5.1 2l1.6 1.5c.6.5 1.5.5 2-.1l7.5-8 8.1 8.1c1.8 1.8 4.3 2.8 6.8 2.8s5-1 6.8-2.8l5-5 7.4 7.4c.6.5 1.4.5 2 0l1.5-1.6c.5-.6.5-1.4 0-2l-7.4-7.3 8.5-8.5 8 8c.6.5 1.4.5 2 0l1.5-1.6c.5-.6.5-1.4 0-2l-8-8 20.5-20.5 9.2 9.2c.6.5 1.4.5 2 0l1.5-1.6c.5-.6.5-1.4 0-2l-9.2-9.2 8.1-8.1 9.4 9.4c.6.5 1.4.5 2 0l1.5-1.6c.5-.6.5-1.4 0-2l-9.4-9.4 8.8-8.8c1.8-1.8 2.8-4.3 2.8-6.8 0-2.6-1-5-2.8-6.8l-5-5 8.3-8.9c.5-.6.5-1.5-.1-2l-1.6-1.5c-.6-.5-1.5-.5-2 .1l-8.2 8.8-8.1-8.1 8.2-8.8c.5-.6.5-1.5-.1-2l-1.6-1.5c-.6-.5-1.5-.5-2 .1l-8.1 8.6-9.1-9.1 75.5-72.5c26.5 28.9 42.6 67 42.6 108.9z"/></g></svg>