<svg xmlns="http://www.w3.org/2000/svg" viewBox="0 0 1000 1000"><style>.st0{fill:#3e3d3d}</style><path class="st0" d="M498.6 870.4c-117.7 0-188.5-28.5-220.2-45.5-10.8-5.8-18.9-15.3-22.9-26.7-7.5-21.5-18.7-64.8-29.5-149.5-7.6-59.5-9.3-101.8-9.3-126.9 0-17.6-10.5-33.3-26.7-40.1l-20.4-8.6c-21.8-9.2-33.8-32.6-28.5-55.7l31.3-136.1c3.4-14.8 13.7-27.4 27.6-33.5 28.3-12.5 76.4-29.9 144.4-41.3l6-1-3.6 4.9c-4.8 6.6-7.2 13.4-7.2 20.3 0 17.3 15 33.8 42.1 46.3 28 12.9 65 20 104.3 20 39.4 0 76.4-7.1 104.1-19.9 27.2-12.5 42.1-29 42.1-46.3 0-7-2.4-13.8-7.2-20.4l-3.6-4.9 6 1c68.4 11.4 116.3 28.8 144.4 41.3 13.8 6.2 24 18.7 27.4 33.4l31.6 137.4c5.1 22.4-6.3 45.5-27.1 55.1l-16.2 7.4c-15.4 7.1-25.4 22.6-25.4 39.5 0 22.5-1.7 62-9.1 122.2-10.2 82.3-24.2 133.4-31.6 156.4-3.7 11.4-11.4 21.1-21.8 27.2-28.1 16.4-91.5 44-201 44zm-158.8-658c-64.6 11.3-110.4 27.9-137.7 40-12.5 5.5-21.7 16.7-24.8 30.1l-31.3 136c-4.8 20.7 6 41.7 25.5 49.9L192 477c18 7.6 29.7 25.2 29.7 44.7 0 24.9 1.7 67 9.2 126.3 10.8 84.3 21.9 127.3 29.3 148.5 3.6 10.3 10.9 18.8 20.5 24 31.3 16.8 101.2 44.9 217.8 44.9 108.3 0 170.9-27.1 198.5-43.3 9.3-5.5 16.3-14.1 19.6-24.4 7.4-22.9 21.2-73.6 31.4-155.5 7.5-60 9.1-99.3 9.1-121.6 0-18.9 11.2-36.1 28.3-44l16.2-7.4c18.7-8.6 28.9-29.3 24.3-49.4l-31.6-137.4c-3-13.2-12.2-24.5-24.6-30-27.1-12.1-72.7-28.7-137.6-40 3.4 6 5.1 12.2 5.1 18.5 0 19.4-16 37.5-45 50.9C563.8 294.7 526.1 302 486 302s-77.8-7.2-106.2-20.4c-29-13.4-45-31.5-45-50.9 0-6.2 1.7-12.4 5-18.3z" id="Layer_3"/><g id="Layer_2"><path class="st0" d="M486 302c-40.1 0-77.8-7.2-106.2-20.4-29-13.4-45-31.5-45-50.9s16-37.5 45-50.9c28.4-13.1 66.1-20.4 106.2-20.4 40.1 0 77.8 7.2 106.2 20.4 29 13.4 45 31.5 45 50.9s-16 37.5-45 50.9C563.8 294.7 526.1 302 486 302zm0-137.5c-39.4 0-76.4 7.1-104.1 19.9-27.2 12.5-42.1 29-42.1 46.3s15 33.8 42.1 46.3c27.8 12.9 64.8 20 104.1 20 39.4 0 76.4-7.1 104.1-19.9 27.2-12.5 42.1-29 42.1-46.3s-15-33.8-42.1-46.3c-27.7-12.9-64.7-20-104.1-20zm4.1 235.1h-3c-.5 0-1-.4-1-1v-19c0-.5.4-1 1-1h3c.5 0 1 .4 1 1v19c0 .5-.5 1-1 1zm44.8 6.3l-2.9-.8c-.5-.1-.8-.7-.7-1.2l4.9-18.4c.1-.5.7-.8 1.2-.7l2.9.8c.5.1.8.7.7 1.2l-4.9 18.4c-.2.5-.7.8-1.2.7zm41.6 17.6l-2.6-1.5c-.5-.3-.6-.9-.4-1.3l9.5-16.5c.3-.5.9-.6 1.3-.4l2.6 1.5c.5.3.6.9.4 1.3l-9.5 16.5c-.2.6-.8.7-1.3.4zm35.6 27.9l-2.1-2.1c-.4-.4-.4-1 0-1.4l13.5-13.5c.4-.4 1-.4 1.4 0l2.1 2.1c.4.4.4 1 0 1.4l-13.5 13.5c-.4.4-1 .4-1.4 0zm27.2 36.1l-1.5-2.6c-.3-.5-.1-1.1.4-1.3l16.5-9.5c.5-.3 1.1-.1 1.3.4l1.5 2.6c.3.5.1 1.1-.4 1.3l-16.5 9.5c-.4.2-1 .1-1.3-.4zm17 41.9l-.8-2.9c-.1-.5.2-1.1.7-1.2l18.4-4.9c.5-.1 1.1.2 1.2.7l.8 2.9c.1.5-.2 1.1-.7 1.2l-18.4 4.9c-.5.2-1.1-.1-1.2-.7zm5.5 44.9v-3c0-.5.4-1 1-1h19c.5 0 1 .4 1 1v3c0 .5-.4 1-1 1h-19c-.6 0-1-.4-1-1zm-6.3 44.8l.8-2.9c.1-.5.7-.8 1.2-.7l18.4 4.9c.5.1.8.7.7 1.2l-.8 2.9c-.1.5-.7.8-1.2.7l-18.4-4.9c-.5-.1-.8-.7-.7-1.2zm-17.7 41.6l1.5-2.6c.3-.5.9-.6 1.3-.4l16.5 9.5c.5.3.6.9.4 1.3l-1.5 2.6c-.3.5-.9.6-1.3.4l-16.5-9.5c-.5-.2-.6-.8-.4-1.3zM610 696.4l2.1-2.1c.4-.4 1-.4 1.4 0l13.5 13.5c.4.4.4 1 0 1.4l-2.1 2.1c-.4.4-1 .4-1.4 0L610 697.8c-.4-.4-.4-1 0-1.4zm-36.1 27.2l2.6-1.5c.5-.3 1.1-.1 1.3.4l9.5 16.5c.3.5.1 1.1-.4 1.3l-2.6 1.5c-.5.3-1.1.1-1.3-.4l-9.5-16.5c-.2-.4-.1-1 .4-1.3zM532 740.5l2.9-.8c.5-.1 1.1.2 1.2.7l4.9 18.4c.1.5-.2 1.1-.7 1.2l-2.9.8c-.5.1-1.1-.2-1.2-.7l-4.9-18.4c-.2-.5.1-1 .7-1.2zm-44.9 5.6h3c.5 0 1 .4 1 1v19c0 .5-.4 1-1 1h-3c-.5 0-1-.4-1-1v-19c0-.6.4-1 1-1zm-44.8-6.3l2.9.8c.5.1.8.7.7 1.2l-4.9 18.4c-.1.5-.7.8-1.2.7l-2.9-.8c-.5-.1-.8-.7-.7-1.2l4.9-18.4c.1-.6.7-.9 1.2-.7zm-41.6-17.7l2.6 1.5c.5.3.6.9.4 1.3l-9.5 16.5c-.3.5-.9.6-1.3.4l-2.6-1.5c-.5-.3-.6-.9-.4-1.3l9.5-16.5c.2-.5.8-.7 1.3-.4zM365 694.3l2.1 2.1c.4.4.4 1 0 1.4l-13.4 13.5c-.4.4-1 .4-1.4 0l-2.1-2.1c-.4-.4-.4-1 0-1.4l13.4-13.5c.4-.4 1-.4 1.4 0zm-27.2-36.1l1.5 2.6c.3.5.1 1.1-.4 1.3l-16.5 9.5c-.5.3-1.1.1-1.3-.4l-1.5-2.6c-.3-.5-.1-1.1.4-1.3l16.5-9.5c.4-.3 1-.1 1.3.4zm-17-42l.8 2.9c.1.5-.2 1.1-.7 1.2l-18.4 4.9c-.5.1-1.1-.2-1.2-.7l-.8-2.9c-.1-.5.2-1.1.7-1.2l18.4-4.9c.6-.1 1.1.2 1.2.7zm-5.5-44.9v3c0 .5-.4 1-1 1h-19c-.5 0-1-.4-1-1v-3c0-.5.4-1 1-1h19c.6.1 1 .5 1 1zm6.3-44.7l-.8 2.9c-.1.5-.7.8-1.2.7l-18.4-4.9c-.5-.1-.8-.7-.7-1.2l.8-2.9c.1-.5.7-.8 1.2-.7l18.4 4.9c.5.1.8.6.7 1.2zm17.7-41.7l-1.5 2.6c-.3.5-.9.6-1.3.4l-16.5-9.5c-.5-.3-.6-.9-.4-1.3l1.5-2.6c.3-.5.9-.6 1.3-.4l16.5 9.5c.5.3.6.9.4 1.3zm27.8-35.6l-2.1 2.1c-.4.4-1 .4-1.4 0L350.1 438c-.4-.4-.4-1 0-1.4l2.1-2.1c.4-.4 1-.4 1.4 0l13.5 13.4c.4.4.4 1 0 1.4zm36.1-27.2l-2.6 1.5c-.5.3-1.1.1-1.3-.4l-9.5-16.5c-.3-.5-.1-1.1.4-1.3l2.6-1.5c.5-.3 1.1-.1 1.3.4l9.5 16.5c.2.4.1 1-.4 1.3zm41.9-17l-2.9.8c-.5.1-1.1-.2-1.2-.7l-4.9-18.4c-.1-.5.2-1.1.7-1.2l2.9-.8c.5-.1 1.1.2 1.2.7l4.9 18.4c.2.5-.1 1.1-.7 1.2z"/><path class="st0" d="M488.6 790c-58 0-112.5-22.6-153.6-63.6-41-41-63.6-95.6-63.6-153.6S294 460.3 335 419.2c41-41 95.6-63.6 153.6-63.6s112.5 22.6 153.6 63.6c41 41 63.6 95.6 63.6 153.6s-22.6 112.5-63.6 153.6S546.6 790 488.6 790zm0-429.3c-117 0-212.2 95.2-212.2 212.2 0 117 95.2 212.2 212.2 212.2 117 0 212.2-95.2 212.2-212.2-.1-117.1-95.3-212.2-212.2-212.2z"/><path class="st0" d="M573.7 488.4l-.7-.7c-.8-.8-2.1-.8-2.8 0l-77.5 77.5c-.6.6-1.6.2-1.6-.7V434.9c0-.5-.4-.9-.9-.9h-3.3c-.5 0-.9.4-.9.9v136.3c0 .8.7 1.5 1.5 1.5h.5c.3 0 .6.1.9.4l.4.4c.5.5 1.4.5 1.9 0l82.4-82.4c.9-.6.9-1.9.1-2.7z"/></g></svg>