<svg xmlns="http://www.w3.org/2000/svg" viewBox="0 0 1000 1000"><style>.st0{fill:#5eff00}</style><g id="Layer_4"><path class="st0" d="M799.3 281.1c-3.4-14.8-13.7-27.3-27.4-33.4-28-12.5-75.5-29.8-143.4-41.2-7.5-10-19.8-19.1-36.2-26.7-28.4-13.1-66.1-20.4-106.2-20.4-40.1 0-77.8 7.2-106.2 20.4-16.5 7.6-28.8 16.8-36.3 26.8-67.5 11.4-115.2 28.6-143.4 41.1-13.9 6.1-24.2 18.7-27.6 33.5l-31.3 136.1c-5.3 23.1 6.7 46.5 28.5 55.7l20.4 8.6c16.2 6.8 26.6 22.6 26.7 40.1 0 25 1.7 67.4 9.3 126.9 10.8 84.7 22 128.1 29.5 149.5 4 11.5 12.1 21 22.9 26.7 31.7 17 102.5 45.5 220.2 45.5 14.1 0 27.4-.5 40-1.3l.9 58c.1 5.7 4.8 10.3 10.5 10.3h.7c5.7 0 10.4-4.6 10.5-10.3l1-60.1c46.4-5.1 81.2-15.3 106-25.3l1.4 85.4c.1 5.7 4.8 10.3 10.5 10.3h.7c5.7 0 10.4-4.6 10.5-10.3l1.6-96.9c2.5-1.3 4.8-2.6 6.9-3.9 10.4-6.1 18.1-15.7 21.8-27.2 7.4-23.1 21.4-74.1 31.6-156.4 7.5-60.3 9.1-99.7 9.1-122.2 0-16.9 10-32.4 25.4-39.5l16.2-7.4c20.9-9.6 32.3-32.7 27.1-55.1l-31.9-137.3zm-417.4-96.7c27.8-12.8 64.8-19.9 104.1-19.9 39.4 0 76.4 7.1 104.1 19.9 15.2 7 26.6 15.3 33.7 24.2l1.2 1.7c2.2 3 3.9 6.1 5.1 9.2 0 .1 0 .1.1.2.2.6.4 1.1.6 1.7.1.2.1.4.2.5.1.5.3.9.4 1.4.2.6.3 1.3.4 2 0 .1.1.3.1.4 0 .3.1.5.1.8 0 .2.1.5.1.7 0 .2.1.4.1.7 0 .3.1.6.1.9v2c0 16.9-14.2 33-40.1 45.4.9-21.3 1.3-40.9 1.4-42.4v-2.2l-2.1-.4c-.2 0-18-3-42.6-3-28.8 0-42.1 2.9-42.7 3l-2 .4.1 2.1c.1 2 .9 35.2 2.6 62.6-6.8.4-13.7.7-20.7.7-39.4 0-76.4-7.1-104.1-19.9-27.2-12.5-42.1-29-42.1-46.3 0-.8 0-1.6.1-2.3v-.4l.3-2.4v-.1c.1-.7.3-1.3.4-2 .1-.5.3-1 .4-1.4 0-.2.1-.3.1-.5.2-.6.4-1.2.6-1.7v-.1c1.2-3.2 2.9-6.3 5.1-9.3l1.2-1.7c7.1-9.2 18.5-17.5 33.7-24.5zM559.2 495h-19.1c-4.1 0-7.4-3.2-7.5-7.3l-1.5-61.5c0-2 .7-4 2.1-5.4 1.4-1.5 3.3-2.3 5.4-2.3h22.2c2 0 3.9.8 5.4 2.3 1.4 1.5 2.2 3.4 2.1 5.4l-1.5 61.5c-.2 4.1-3.5 7.3-7.6 7.3zm-23.8 180.4c-8.7 9.8-21.4 15.9-35.4 15.9-26.2 0-47.5-21.3-47.5-47.5s21.3-47.5 47.5-47.5c13.5 0 25.8 5.7 34.4 14.8l1 64.3zm24-261.9h-21.3c-3.1-5.7-16-32.4-24-89-.8-5.6-1.5-14-2.1-23.6-.1-1.6-.2-3.3-.3-5-1.4-23.8-2.3-52.2-2.5-60.2 4.7-.8 17.7-2.5 39.6-2.5 19.3 0 34.3 1.8 39.6 2.6-.1 6.1-.6 24-1.4 42.6-.1 1.9-.2 3.7-.3 5.6-.8 16-1.8 31.7-3.2 40.4-8.6 54.1-21.1 82.8-24.1 89.1zm-60.8 451.9c-116.6 0-186.5-28.1-217.8-44.9-9.7-5.2-17-13.7-20.5-24-7.4-21.2-18.5-64.2-29.3-148.5-7.6-59.3-9.2-101.4-9.2-126.3 0-19.6-11.7-37.1-29.7-44.7l-20.4-8.6c-19.6-8.2-30.3-29.2-25.5-49.9l31.3-136.1c3.1-13.3 12.3-24.6 24.8-30.1 27.3-12.1 73.1-28.6 137.6-40-1.2 2.2-2.2 4.5-3 6.8-.5 1.5-.9 3-1.2 4.6v.1c-.1.7-.2 1.4-.3 2 0 .2-.1.4-.1.6-.1.5-.1 1.1-.2 1.6v.6c0 .7-.1 1.4-.1 2.1 0 19.4 16 37.5 45 50.9 28.2 13.1 65.9 20.4 106 20.4 7.1 0 14.1-.2 21-.7.6 9.6 1.3 18.2 2.2 23.9 7.8 54.8 19.8 81.6 23.9 89.6-1.3.6-2.5 1.5-3.5 2.5-2.4 2.4-3.6 5.6-3.5 9l1.5 61.5c.1 5 3.1 9.2 7.4 11.1-1.5 1.9-2.3 4.3-2.3 6.7l1.6 98.4c-9.2-8-21.2-12.8-34.3-12.8-28.9 0-52.5 23.6-52.5 52.5s23.6 52.5 52.5 52.5c13.7 0 26.2-5.3 35.6-13.9l2.9 181.7c-12.6 1-25.9 1.4-39.9 1.4zm57.5 61.7c0 3-2.5 5.4-5.5 5.4h-.6c-3 0-5.5-2.4-5.5-5.4l-.9-58.3-.1-5-3-186.6-.1-8.4-.8-51.3-.1-8.3-1.7-103.6c0-1.5.5-2.9 1.6-3.9 1-1.1 2.4-1.6 3.9-1.6h14.1c1.5 0 2.9.6 3.9 1.6 1 1.1 1.6 2.5 1.6 3.9l-5.7 357-.1 5-1 59.5zm130 0c0 3-2.5 5.4-5.5 5.4h-.6c-3 0-5.5-2.4-5.5-5.4l-1.4-87.4-.1-5.4-2.5-157.5-.1-5.1-1.5-92.2-.1-5.1-1.1-68.6c0-1.5.5-2.9 1.6-3.9 1-1.1 2.4-1.6 3.9-1.6h14.1c1.5 0 2.9.6 3.9 1.6 1 1.1 1.6 2.5 1.6 3.9l-1.3 79.5-.1 6.6-1.1 69-.1 6.6-2.6 160-.1 5.7-1.4 93.9zm-20.7-254.5c-2.3.3-4.7.5-7.1.5-26.2 0-47.5-21.3-47.5-47.5s21.3-47.5 47.5-47.5c1.9 0 3.7.1 5.6.3l1.5 94.2zm.7-259.1c-3.9-3.7-24.2-26.1-16.7-76 3.9-25.5 9.5-40.1 15-54.3 4.4-11.3 8.9-22.8 12.5-39.8 4.6 13.5 13.4 39.8 19.9 60.7 13.4 43.2 11.9 84.9-3.8 109.4h-26.9zm-2.9 7.2c1.4-1.5 3.3-2.3 5.4-2.3h22.2c2 0 3.9.8 5.4 2.3 1.4 1.5 2.2 3.4 2.1 5.4l-1.5 61.5c-.1 4.1-3.4 7.3-7.5 7.3h-19.1c-4.1 0-7.4-3.2-7.5-7.3l-1.5-61.5c-.2-2 .6-3.9 2-5.4zm33.2 176.6c5.9 7.9 9.4 17.8 9.4 28.4 0 11.2-3.9 21.4-10.4 29.6l1-58zm105.3-128.2l-16.2 7.4c-17.2 7.9-28.3 25.2-28.3 44 0 22.4-1.7 61.6-9.1 121.6-10.2 81.9-24 132.6-31.4 155.5-3.3 10.3-10.2 18.9-19.6 24.4-1.4.8-2.8 1.6-4.3 2.5l2.6-161.7c9.6-9.5 15.5-22.7 15.5-37.2 0-13.9-5.5-26.6-14.3-36l1.3-84c0-2.7-.9-5.2-2.7-7.2 3.8-2.1 6.4-6 6.5-10.7l1.5-61.5c.1-3.4-1.2-6.6-3.5-9-.6-.7-1.3-1.2-2.1-1.7 16.1-25.8 17.6-68.7 3.9-112.9-9.1-29.4-22.8-69.4-22.9-69.8l-3.2-9.2-1.7 9.6c-3.8 21.7-9 35.2-14 48.1-5.6 14.4-11.4 29.3-15.3 55.3-7.4 48.7 10.4 72.3 16.9 79.1-.6.4-1.2.9-1.7 1.4-2.4 2.4-3.6 5.6-3.5 9l1.5 61.5c.1 5 3.1 9.2 7.4 11.1-1.5 1.9-2.3 4.3-2.3 6.7l1.1 67.8c-1.8-.2-3.6-.3-5.5-.3-28.9 0-52.5 23.6-52.5 52.5s23.6 52.5 52.5 52.5c2.4 0 4.8-.2 7.1-.5l2.5 158.7c-24.4 10.1-59.2 20.5-105.9 25.7l5.7-356.4c0-2.7-.9-5.2-2.7-7.2 3.8-2.1 6.4-6 6.5-10.7L573 426c.1-3.4-1.2-6.6-3.5-9-1.4-1.5-3.1-2.5-5-3.1 4-8.8 15.5-37.2 23.8-88.9 1.5-9.4 2.6-26.5 3.4-43.4.1-.1.3-.1.4-.2 29-13.4 45-31.5 45-50.9 0-.7 0-1.4-.1-2.1v-.6c0-.5-.1-1.1-.2-1.6 0-.2 0-.4-.1-.6-.1-.7-.2-1.4-.4-2.1-.2-.8-.3-1.5-.5-2.3v-.1c-.2-.7-.4-1.5-.7-2.2v-.1c-.8-2.3-1.8-4.6-3-6.8 64.9 11.3 110.5 27.9 137.6 40 12.4 5.5 21.6 16.7 24.6 30L826 419.7c4.7 20-5.6 40.8-24.3 49.4z"/><path class="st0" d="M359.5 401c0-28.9-23.6-52.5-52.5-52.5s-52.5 23.6-52.5 52.5 23.6 52.5 52.5 52.5 52.5-23.6 52.5-52.5zm-100 0c0-26.2 21.3-47.5 47.5-47.5s47.5 21.3 47.5 47.5-21.3 47.5-47.5 47.5-47.5-21.3-47.5-47.5zm91.5 96.5c-28.9 0-52.5 23.6-52.5 52.5s23.6 52.5 52.5 52.5 52.5-23.6 52.5-52.5-23.6-52.5-52.5-52.5zm0 100c-26.2 0-47.5-21.3-47.5-47.5s21.3-47.5 47.5-47.5 47.5 21.3 47.5 47.5-21.3 47.5-47.5 47.5z"/></g></svg>