<svg xmlns="http://www.w3.org/2000/svg" height="62.2" width="625.114" viewBox="0 0 625.11383 62.200001" id="Layer_2"><style id="style3">.st0{fill:#1e868c}</style><g transform="translate(-33.4 -485.8)" id="g5"><path id="path7" d="M658.2 498.9l-7-12.1c-.4-.6-1-1-1.7-1s-1.4.4-1.7 1l-7 12.1c-.4.6-.4 1.4 0 2 .4.6 1 1 1.7 1h6v2.2c0 6.2-5 11.2-11.2 11.2H54.6c-7.3 0-13.2 5.9-13.2 13.2v3.4h-6c-.7 0-1.4.4-1.7 1-.4.6-.4 1.4 0 2l7 12.1c.4.6 1 1 1.7 1s1.4-.4 1.7-1l7-12.1c.4-.6.4-1.4 0-2-.4-.6-1-1-1.7-1h-6v-3.4c0-6.2 5-11.2 11.2-11.2h582.8c7.3 0 13.2-5.9 13.2-13.2v-2.2h6c.7 0 1.4-.4 1.7-1 .3-.7.3-1.4-.1-2z" class="st0" fill="#1e868c"/></g></svg>