<svg xmlns="http://www.w3.org/2000/svg" height="577.678" width="1073.9" viewBox="0 0 1073.9 577.67792" id="Layer_1"><style id="style3">.st0{fill:#4f4e4f}</style><g transform="translate(-51 -292.022)" id="g5"><path id="path7" d="M1027.3 869.7c-3.3 0-6.7-.6-9.9-1.9L303.2 659V502.7l1.8-.5 712.4-208.3c8.4-3.3 17.9-2.2 25.4 2.9s12 13.6 12 22.7v522.6c0 9.1-4.5 17.6-12 22.7-4.6 3.2-10 4.9-15.5 4.9zM308.2 655.3L1019 863.1h.1c7 2.8 14.6 1.9 20.9-2.4 6.2-4.3 9.8-11 9.8-18.6V319.6c0-7.6-3.6-14.3-9.8-18.6-6.2-4.3-13.9-5.1-20.9-2.4l-.2.1-710.7 207.8v148.8z" class="st0" fill="#4f4e4f"/></g><g transform="translate(-51 -292.022)" id="g9"><path id="path11" d="M1052.3 653.5v-5c37.3 0 67.6-30.3 67.6-67.6s-30.3-67.6-67.6-67.6v-5c40.1 0 72.6 32.6 72.6 72.6 0 40-32.5 72.6-72.6 72.6z" class="st0" fill="#4f4e4f"/></g><g transform="translate(-51 -292.022)" id="g13"><path id="path15" d="M308.2 659.6H109.1c-32 0-58.1-35.3-58.1-78.8S77.1 502 109.1 502h199.1v157.6zM109.1 507.1c-29.3 0-53.1 33.1-53.1 73.8 0 40.7 23.8 73.8 53.1 73.8h194.1V507.1H109.1z" class="st0" fill="#4f4e4f"/></g><g transform="translate(-51 -292.022)" id="g17"><path id="path19" d="M475.4 777.3c-3 0-6.1-.4-9-1.3l-117.9-33.9c-17.2-5-27.2-23-22.2-40.2l10.5-36.8 4.8 1.4-10.5 36.8c-4.2 14.6 4.3 29.8 18.8 34l117.9 33.9c7.1 2 14.5 1.2 20.9-2.4 6.4-3.6 11.1-9.4 13.1-16.5l10.5-36.8 4.8 1.4-10.5 36.8c-2.4 8.3-7.9 15.3-15.5 19.5-4.9 2.7-10.2 4.1-15.7 4.1z" class="st0" fill="#4f4e4f"/></g><g transform="translate(-51 -292.022)" id="g21"><path id="path23" d="M472.1 823.9c-5.3 0-10.7-.8-16-2.3l-124.4-35.8c-30.5-8.8-48.1-40.7-39.4-71.2L309 657l4.8 1.4-16.6 57.7c-8 27.8 8.1 57 35.9 65l124.4 35.8c13.5 3.9 27.7 2.3 39.9-4.5 12.3-6.8 21.2-17.9 25-31.4l16.6-57.7 4.8 1.4-16.6 57.7c-4.2 14.8-14 27-27.4 34.4-8.5 4.7-18.1 7.1-27.7 7.1z" class="st0" fill="#4f4e4f"/></g></svg>