<svg xmlns="http://www.w3.org/2000/svg" viewBox="0 0 1000 1000"><style>.st0{fill:#d8d0ca}</style><g id="Layer_1"><path class="st0" d="M245.2 218.3v175.4h64v10c.2 17.2-23.6 18.1-18.8 47.2 4.3 25.8 18.5 28.5 18.5 42.3s.2 288.5.2 288.5l444-40s.3-211.4 0-236.3-12-31.2-14.7-48.7c-2.9-19 14.7-25.5 14.7-44v-19h64V218.3H245.2zm496 479H319.7s-.2-172.9 0-199.1c.2-26.2-16.2-24-20.8-45.5-6.1-28.9 21.4-23.7 20.7-59.5-.5-27.4.1-166.4.1-166.4h421.5v185.9c0 12.2-18.6 19.6-14.7 44 3.3 20.7 14.7 28.5 14.7 47.7v192.9z"/><path class="st0" d="M640.7 668.6h10.5S605.6 519.3 599.7 500c-7.6-24.8-20.2-30.6-28.8-46.1-9.1-16.3 5.8-29.8.2-47.7-4.1-13.1-39.9-130.8-39.9-130.8h-10.5s-36.4 119.5-41.1 134.8c-4.7 15.3-19.7 20.9-25.4 40.5-5.7 19.6.1 29.6-1 44-1.1 13-52.4 173.9-52.4 173.9h10.5l39.9-130.8h149.7l39.8 130.8zM454.2 527.8s5.2-18.4 8-31.7c3-14-3.9-24.9 1.2-41.2 6.7-21.3 19.9-21.6 27.1-46.1 5.4-18.4 35.5-116.3 35.5-116.3s32.6 106.1 35.9 117.6-8.6 30.5-1.5 44.8c10.4 21.1 23.6 27.9 28.9 45 4.1 13.1 8.5 27.8 8.5 27.8H454.2z"/></g></svg>