<svg id="Layer_1" xmlns="http://www.w3.org/2000/svg" viewBox="0 0 1000 1000"><style>.st0{fill:#212121}</style><path class="st0" d="M877.3 506c4.4 0 8.7-1.5 12-4.4 3.7-3.2 5.8-7.7 5.8-12.4V360.1c0-83.6-73.1-151.6-162.9-151.6H267.7c-89.8 0-162.9 68-162.9 151.6v129.1c0 4.7 2.1 9.3 5.8 12.4 4.1 3.5 9.6 5 15 4.2l159-24.9c-25.3 61.7-71.8 113.1-131.8 143.6-1.3.7-2.7 1.3-4 2l-24 11.7c-11.8 5.8-19.5 18-19.5 31.2v129.2c0 19.2 15.6 34.8 34.8 34.8h720.2c19.2 0 34.8-15.6 34.8-34.8V669.5c0-13.2-7.6-25.4-19.5-31.2l-24-11.7c-1.3-.7-2.7-1.3-4-2-60-30.5-106.4-81.8-131.8-143.5l158.4 24.8c1.1.1 2.1.1 3.1.1zm-31.9 123c1.4.7 2.7 1.4 4.1 2l24 11.7c10.1 5 16.7 15.5 16.7 26.7v129.2c0 16.4-13.4 29.8-29.8 29.8H140.2c-16.4 0-29.8-13.4-29.8-29.8V669.5c0-11.3 6.5-21.8 16.7-26.7l24-11.7c1.4-.7 2.7-1.4 4.1-2 81.9-41.6 139-121.5 152.8-213.6l17-113.9c2.9-19.3 19.8-33.9 39.4-33.9h272c19.6 0 36.5 14.6 39.4 33.9l17 113.9c13.6 92 70.7 171.9 152.6 213.5zM697.6 414.6l-17-113.9c-3.2-21.8-22.3-38.2-44.3-38.2h-272c-22 0-41.1 16.4-44.3 38.2l-17 113.9c-3.1 21.1-8.6 41.5-16.1 60.9L125 500.9c-4 .6-8-.5-11-3-2.6-2.3-4.1-5.3-4.1-8.6V360.1c0-80.8 70.8-146.6 157.9-146.6h464.6c87.1 0 157.9 65.8 157.9 146.6v129.1c0 3.3-1.5 6.4-4.1 8.6-3 2.5-7 3.6-11 3l-161.3-25.3c-7.7-19.3-13.2-39.8-16.3-60.9z"/><path class="st0" d="M502.5 383.2c-107.6 0-195.2 73.8-195.2 164.4 0 90.7 87.6 164.4 195.2 164.4s195.2-73.8 195.2-164.4c0-90.7-87.6-164.4-195.2-164.4zm0 323.8c-104.9 0-190.2-71.5-190.2-159.4s85.3-159.4 190.2-159.4c104.9 0 190.2 71.5 190.2 159.4S607.4 707 502.5 707z"/><path class="st0" d="M500.2 461.7c.8 0 1.6.1 2.4.1 16.9 0 31.2-11.2 32.5-25.7.6-6.6-1.6-13.2-6.2-18.5-5.7-6.6-14.4-10.7-23.9-11.3-17.9-1.1-33.5 10.4-34.9 25.7-.6 6.6 1.6 13.2 6.2 18.5 5.6 6.5 14.3 10.6 23.9 11.2zM475 432.4c1-12 13.2-21.2 27.5-21.2.7 0 1.4 0 2.1.1 8.2.5 15.7 4 20.5 9.5 3.7 4.3 5.5 9.6 5 14.8-1.1 12.6-14.3 22-29.6 21.1-8.2-.5-15.7-4-20.5-9.5-3.7-4.3-5.5-9.6-5-14.8zm82.2 42.5c5.9 3.8 12.8 5.6 19.7 5.6 9.7 0 19.4-3.7 25.8-10.6 5.3-5.7 7.6-12.9 6.7-20.1-1-7.7-5.5-14.5-12.7-19.1-14.1-9.1-34.5-6.9-45.4 5-5.3 5.7-7.6 12.9-6.7 20.1.9 7.7 5.4 14.5 12.6 19.1zM555 439c5.5-6 13.7-9.1 22-9.1 5.9 0 11.9 1.6 17 4.9 5.9 3.8 9.7 9.4 10.4 15.6.7 5.8-1.2 11.5-5.4 16.1-9.3 10.2-26.8 12.1-39 4.2-5.9-3.8-9.7-9.4-10.4-15.6-.8-5.7 1.1-11.4 5.4-16.1zm61.3 37.6c-8.9 2.6-16.1 8.3-19.7 15.7-3 6.3-3.3 13.3-.6 19.8 4.7 11.4 17.4 18.6 30.9 18.6 3.5 0 7-.5 10.4-1.5 8.9-2.6 16.1-8.3 19.7-15.7 3.1-6.3 3.3-13.3.6-19.8-5.9-14.3-24.4-22-41.3-17.1zm36.7 19c2.1 5.1 1.9 10.7-.5 15.7-3 6.1-9 10.9-16.5 13.1-14.5 4.2-30.3-2.2-35.3-14.2-2.1-5.1-1.9-10.7.5-15.7 3-6.1 9-10.9 16.5-13.1 3-.9 6.1-1.3 9.1-1.3 11.5 0 22.3 6 26.2 15.5zm-49 65.2c-2 6.5-1.2 13.4 2.4 19.5 4.2 7.2 11.9 12.5 21.1 14.5 2.7.6 5.4.9 8 .9 14.5 0 27.8-8.3 31.6-20.8 2-6.5 1.2-13.4-2.4-19.5-4.2-7.2-11.9-12.5-21.1-14.5-17.4-3.7-35.1 5.2-39.6 19.9zm56.4-2.9c2.8 4.8 3.5 10.3 1.9 15.5-3.8 12.3-18.9 19.7-33.7 16.5-7.8-1.7-14.3-6.1-17.9-12.2-2.8-4.8-3.5-10.3-1.9-15.5 3.8-12.3 18.9-19.7 33.7-16.5 7.8 1.8 14.3 6.2 17.9 12.2zm-36.1 49.4c-12-11.1-32.5-12-45.7-1.9-6.6 5-10.5 12-10.9 19.6-.4 7.4 2.7 14.5 8.6 20 6.4 5.9 15.2 9 24.1 9 7.7 0 15.5-2.3 21.7-7 6.6-5 10.5-12 10.9-19.6.2-7.6-2.8-14.7-8.7-20.1zm3.5 19.7c-.3 6.1-3.5 11.7-8.9 15.8-11.4 8.7-29 7.9-39.3-1.6-4.8-4.4-7.3-10.1-7-16.1.3-6.1 3.5-11.7 8.9-15.8 11.4-8.7 29-7.9 39.3 1.6 4.9 4.5 7.3 10.2 7 16.1zm-100 3.8c-9.4 1.2-17.8 5.9-22.8 12.8-4.1 5.6-5.7 12.4-4.5 19 2.5 13.7 16.4 23.5 32.2 23.5 1.6 0 3.2-.1 4.9-.3 9.4-1.2 17.8-5.9 22.8-12.8 4.1-5.6 5.7-12.4 4.5-19-2.8-15-19.4-25.4-37.1-23.2zm28.5 39.3c-4.2 5.8-11.3 9.7-19.4 10.8-15.1 2-29.3-6.6-31.5-19.1-1-5.2.3-10.6 3.7-15.1 4.2-5.8 11.3-9.7 19.4-10.8 1.4-.2 2.9-.3 4.3-.3 13.4 0 25.2 8.1 27.3 19.4.8 5.2-.5 10.6-3.8 15.1zm-87.7-41.4c-16.2-6.3-35.5-.2-43 13.5-3.4 6.3-4 13.4-1.6 20.1 2.8 7.6 9.2 13.8 17.6 17 4.3 1.7 8.9 2.5 13.4 2.5 12.3 0 24.1-5.9 29.6-16 3.4-6.3 4-13.4 1.6-20.1-2.8-7.6-9.2-13.8-17.6-17zm11.6 34.6c-6.4 11.6-22.9 16.7-36.8 11.3-7.1-2.7-12.5-7.9-14.8-14.1-1.9-5.3-1.5-10.9 1.3-15.9 4.6-8.5 14.7-13.4 25.1-13.4 3.9 0 7.9.7 11.7 2.2 7.1 2.7 12.5 7.9 14.8 14.1 1.9 5.2 1.5 10.8-1.3 15.8zm-59.4-63.7c-9.5-12.8-29.5-16.8-44.6-8.9-7.7 4-13.2 10.7-14.9 18.3-1.6 7 0 14.2 4.4 20.2 6.2 8.3 16.8 12.9 27.7 12.9 5.8 0 11.7-1.3 17-4.1 7.7-4 13.2-10.7 14.9-18.3 1.5-6.9-.1-14.1-4.5-20.1zm-.5 19.1c-1.4 6.2-5.9 11.7-12.4 15-13.1 6.8-30.2 3.5-38.3-7.4-3.6-4.8-4.8-10.6-3.6-16.1 1.4-6.2 5.9-11.7 12.4-15 4.6-2.4 9.7-3.5 14.7-3.5 9.3 0 18.3 3.9 23.6 10.9 3.6 4.8 4.9 10.5 3.6 16.1zm-52.8-38.1c17.6 0 32.1-12 32.6-27 .2-6.6-2.3-13.1-7.2-18.2-6-6.4-14.9-10.1-24.5-10.3-18-.4-33 11.7-33.5 27-.2 6.6 2.3 13.1 7.2 18.2 6 6.4 14.9 10.1 24.5 10.3h.9zm-27.6-28.4c.4-12.4 12.7-22.2 27.6-22.2h.8c8.2.2 15.9 3.4 21 8.8 3.9 4.2 6 9.4 5.8 14.6-.4 12.6-13.1 22.5-28.4 22.2-8.2-.2-15.9-3.4-21-8.8-3.9-4.2-6-9.4-5.8-14.6zm28-39.9c5.6 3.3 12.1 4.9 18.4 4.9 10.2 0 20.3-4.1 26.7-11.7 4.9-5.9 6.9-13.1 5.7-20.2-1.3-7.6-6.3-14.4-13.7-18.8-14.6-8.6-34.9-5.6-45.1 6.8-4.9 5.9-6.9 13.1-5.7 20.2 1.3 7.6 6.3 14.4 13.7 18.8zm-4.2-35.8c5.4-6.5 14-9.9 22.8-9.9 5.5 0 11.1 1.4 16 4.2 6.2 3.7 10.2 9.1 11.3 15.3 1 5.7-.6 11.4-4.6 16.1-8.8 10.5-26.1 13.1-38.7 5.7-6.2-3.7-10.2-9.1-11.3-15.3-1.1-5.6.5-11.4 4.5-16.1z"/></svg>