<svg xmlns="http://www.w3.org/2000/svg" viewBox="0 0 1000 1000"><path d="M601.4 460.5c7.7 0 13.9-6.2 13.9-13.9s-6.2-13.9-13.9-13.9-13.9 6.2-13.9 13.9 6.2 13.9 13.9 13.9z"/><path d="M950.1 299.3C931 254.2 903.7 213.8 869 179c-34.8-34.8-75.2-62.1-120.3-81.1-46.7-19.8-96.2-29.8-147.3-29.8s-100.7 10-147.3 29.7c-45.1 19.1-85.5 46.4-120.3 81.1s-62.1 75.2-81.1 120.3C233 345.9 223 395.4 223 446.5s10 100.7 29.7 147.3c1.3 3.2 2.7 6.3 4.2 9.4L22.7 711v233c-4.9.7-8.6 4.9-8.6 9.9 0 5.5 4.5 10.1 10.1 10.1s10.1-4.5 10.1-10.1c0-5.1-3.8-9.2-8.6-9.9V712.8L258 606c18.7 40.2 44.1 76.6 75.7 108.2 34.8 34.8 75.2 62 120.3 81.1C500.7 815 550.2 825 601.3 825s100.7-10 147.3-29.7c45.1-19.1 85.5-46.4 120.3-81.1C903.7 679.4 931 639 950 593.9c19.7-46.7 29.7-96.2 29.7-147.3s-9.8-100.6-29.6-147.3zM601.4 824.6c-151.6 0-282.7-89.7-342.8-218.9l85.5-39.3c13.8 29.7 32.9 57 56.7 80.8 53.6 53.6 124.9 83.1 200.7 83.1s147.1-29.5 200.7-83.1c53.6-53.6 83.1-124.9 83.1-200.7 0-75.8-29.5-147.1-83.1-200.7-53.6-53.6-124.9-83.1-200.7-83.1S454.3 192.4 400.7 246c-53.6 53.6-83.1 124.9-83.1 200.7 0 41.1 8.7 80.9 25.2 117.2l-85.5 39.3c-21.8-47.7-33.9-100.7-33.9-156.5 0-208.4 169.6-378 378-378s378 169.6 378 378-169.6 377.9-378 377.9zm0-339c21.5 0 38.9-17.5 38.9-38.9 0-21.5-17.5-38.9-38.9-38.9-21.5 0-38.9 17.5-38.9 38.9 0 5.3 1.1 10.3 3 14.9l-108.1 49.7c-8.9-19.7-13.8-41.6-13.8-64.6 0-87.1 70.8-157.9 157.9-157.9s157.9 70.8 157.9 157.9c0 87.1-70.8 157.9-157.9 157.9-63 0-117.5-37.1-142.8-90.7l108.1-49.7c6.3 12.7 19.4 21.4 34.6 21.4zm-29.3-39c0-16.1 13.1-29.3 29.3-29.3 16.1 0 29.3 13.1 29.3 29.3 0 16.1-13.1 29.3-29.3 29.3-16.2 0-29.3-13.1-29.3-29.3zm29.3 158.9c87.6 0 158.9-71.3 158.9-158.9S689 287.8 601.4 287.8 442.5 359 442.5 446.6c0 23.1 5 45.2 13.9 65l-112.8 51.9c-16.2-35.6-25.3-75.2-25.3-116.9 0-156.1 127-283.1 283.1-283.1 156.1 0 283.1 127 283.1 283.1 0 156.1-127 283.1-283.1 283.1-113.4 0-211.4-67-256.6-163.6l112.8-51.9c25.5 53.9 80.4 91.3 143.8 91.3z"/></svg>